<mxfile host="app.diagrams.net" modified="2020-12-10T08:05:05.576Z" agent="5.0 (Windows NT 10.0; Win64; x64) AppleWebKit/537.36 (KHTML, like Gecko) Chrome/86.0.4240.198 Safari/537.36" etag="KVOyoNdxxW5OYnUUT6Tz" version="13.10.1" type="github">
  <diagram name="Page-1" id="c7558073-3199-34d8-9f00-42111426c3f3">
    <mxGraphModel dx="1422" dy="794" grid="1" gridSize="10" guides="1" tooltips="1" connect="1" arrows="1" fold="1" page="1" pageScale="1" pageWidth="826" pageHeight="1169" background="#ffffff" math="0" shadow="0">
      <root>
        <mxCell id="0" />
        <mxCell id="1" parent="0" />
        <mxCell id="Wp3fWdjh60ijozdMkYZD-96" style="edgeStyle=orthogonalEdgeStyle;rounded=1;sketch=0;jumpStyle=arc;orthogonalLoop=1;jettySize=auto;html=1;entryX=0.75;entryY=1;entryDx=0;entryDy=0;strokeWidth=2;exitX=0.81;exitY=0;exitDx=0;exitDy=0;exitPerimeter=0;" edge="1" parent="1">
          <mxGeometry relative="1" as="geometry">
            <mxPoint x="651" y="745" as="sourcePoint" />
            <mxPoint x="651" y="695" as="targetPoint" />
          </mxGeometry>
        </mxCell>
        <mxCell id="Wp3fWdjh60ijozdMkYZD-97" value="" style="rounded=0;whiteSpace=wrap;html=1;strokeWidth=3;dashed=1;gradientColor=#ffffff;dashPattern=1 1;" vertex="1" parent="1">
          <mxGeometry x="346" y="745" width="500" height="240" as="geometry" />
        </mxCell>
        <mxCell id="Wp3fWdjh60ijozdMkYZD-98" style="edgeStyle=orthogonalEdgeStyle;rounded=0;orthogonalLoop=1;jettySize=auto;html=1;strokeWidth=2;entryX=0;entryY=0.25;entryDx=0;entryDy=0;" edge="1" parent="1" target="Wp3fWdjh60ijozdMkYZD-107">
          <mxGeometry relative="1" as="geometry">
            <Array as="points">
              <mxPoint x="220" y="814" />
              <mxPoint x="220" y="814" />
            </Array>
            <mxPoint x="141.5" y="814" as="sourcePoint" />
          </mxGeometry>
        </mxCell>
        <mxCell id="Wp3fWdjh60ijozdMkYZD-100" value="&lt;p style=&quot;margin: 0px ; margin-top: 4px ; text-align: center ; text-decoration: underline&quot;&gt;&lt;strong&gt;&lt;br&gt;&lt;/strong&gt;&lt;/p&gt;&lt;hr&gt;&lt;p style=&quot;margin: 0px ; margin-left: 8px&quot;&gt;Lightweight&lt;/p&gt;&lt;p style=&quot;margin: 0px ; margin-left: 8px&quot;&gt;protocol&lt;/p&gt;&lt;p style=&quot;margin: 0px ; margin-left: 8px&quot;&gt;conversion&lt;/p&gt;&lt;p style=&quot;margin: 0px ; margin-left: 8px&quot;&gt;Layer&lt;/p&gt;&lt;p style=&quot;margin: 0px ; margin-left: 8px&quot;&gt;&lt;br&gt;&lt;/p&gt;" style="verticalAlign=middle;align=center;overflow=fill;fontSize=12;fontFamily=Helvetica;html=1;rounded=1;fontStyle=1;strokeWidth=3;fillColor=#E6FFCC;dashed=1;" vertex="1" parent="1">
          <mxGeometry x="200" y="825" width="93" height="115" as="geometry" />
        </mxCell>
        <mxCell id="Wp3fWdjh60ijozdMkYZD-101" style="edgeStyle=orthogonalEdgeStyle;rounded=1;orthogonalLoop=1;jettySize=auto;html=1;dashed=1;strokeWidth=2;" edge="1" parent="1" source="Wp3fWdjh60ijozdMkYZD-102" target="Wp3fWdjh60ijozdMkYZD-109">
          <mxGeometry relative="1" as="geometry">
            <Array as="points">
              <mxPoint x="690" y="820" />
              <mxPoint x="690" y="820" />
            </Array>
          </mxGeometry>
        </mxCell>
        <mxCell id="Wp3fWdjh60ijozdMkYZD-102" value="Message Bus" style="shape=process;whiteSpace=wrap;align=center;verticalAlign=middle;size=0.0475;fontStyle=1;strokeWidth=3;fillColor=#FFCCCC;" vertex="1" parent="1">
          <mxGeometry x="326" y="920" width="464" height="30" as="geometry" />
        </mxCell>
        <mxCell id="Wp3fWdjh60ijozdMkYZD-103" style="edgeStyle=orthogonalEdgeStyle;rounded=0;orthogonalLoop=1;jettySize=auto;html=1;strokeWidth=2;" edge="1" parent="1" target="Wp3fWdjh60ijozdMkYZD-107">
          <mxGeometry relative="1" as="geometry">
            <mxPoint x="140" y="970" as="sourcePoint" />
          </mxGeometry>
        </mxCell>
        <mxCell id="Wp3fWdjh60ijozdMkYZD-104" value="&lt;b&gt;Historical Data&lt;/b&gt;" style="shape=note;whiteSpace=wrap;html=1;backgroundOutline=1;darkOpacity=0.05;strokeWidth=3;fillColor=#FFFFCC;" vertex="1" parent="1">
          <mxGeometry x="30" y="780" width="110" height="90" as="geometry" />
        </mxCell>
        <mxCell id="Wp3fWdjh60ijozdMkYZD-105" style="edgeStyle=orthogonalEdgeStyle;rounded=1;orthogonalLoop=1;jettySize=auto;html=1;strokeWidth=2;dashed=1;" edge="1" parent="1" source="Wp3fWdjh60ijozdMkYZD-107" target="Wp3fWdjh60ijozdMkYZD-102">
          <mxGeometry relative="1" as="geometry">
            <Array as="points">
              <mxPoint x="486" y="810" />
              <mxPoint x="486" y="810" />
            </Array>
          </mxGeometry>
        </mxCell>
        <mxCell id="Wp3fWdjh60ijozdMkYZD-106" style="edgeStyle=orthogonalEdgeStyle;rounded=1;orthogonalLoop=1;jettySize=auto;html=1;strokeWidth=2;" edge="1" parent="1" source="Wp3fWdjh60ijozdMkYZD-107" target="Wp3fWdjh60ijozdMkYZD-109">
          <mxGeometry relative="1" as="geometry">
            <Array as="points">
              <mxPoint x="650" y="825" />
              <mxPoint x="650" y="825" />
            </Array>
          </mxGeometry>
        </mxCell>
        <mxCell id="Wp3fWdjh60ijozdMkYZD-107" value="&lt;p style=&quot;margin: 0px ; margin-top: 4px ; text-align: center ; text-decoration: underline&quot;&gt;&lt;strong&gt;&lt;br&gt;&lt;/strong&gt;&lt;/p&gt;&lt;hr&gt;&lt;p style=&quot;margin: 0px ; margin-left: 8px&quot;&gt;Data&amp;nbsp;&lt;/p&gt;&lt;p style=&quot;margin: 0px ; margin-left: 8px&quot;&gt;Preprocessing&lt;/p&gt;" style="verticalAlign=middle;align=center;overflow=fill;fontSize=12;fontFamily=Helvetica;html=1;rounded=1;fontStyle=1;strokeWidth=3;fillColor=#dae8fc;strokeColor=#6c8ebf;" vertex="1" parent="1">
          <mxGeometry x="420" y="785" width="111.5" height="115" as="geometry" />
        </mxCell>
        <mxCell id="Wp3fWdjh60ijozdMkYZD-108" style="edgeStyle=orthogonalEdgeStyle;rounded=1;orthogonalLoop=1;jettySize=auto;html=1;strokeWidth=2;dashed=1;" edge="1" parent="1" source="Wp3fWdjh60ijozdMkYZD-109" target="Wp3fWdjh60ijozdMkYZD-102">
          <mxGeometry relative="1" as="geometry">
            <mxPoint x="670" y="930" as="targetPoint" />
            <Array as="points">
              <mxPoint x="730" y="830" />
              <mxPoint x="730" y="830" />
            </Array>
          </mxGeometry>
        </mxCell>
        <mxCell id="Wp3fWdjh60ijozdMkYZD-109" value="&lt;p style=&quot;margin: 0px ; margin-top: 4px ; text-align: center ; text-decoration: underline&quot;&gt;&lt;strong&gt;&lt;br&gt;&lt;/strong&gt;&lt;/p&gt;&lt;hr&gt;&lt;p style=&quot;margin: 0px ; margin-left: 8px&quot;&gt;Modularized&amp;nbsp;&lt;/p&gt;&lt;p style=&quot;margin: 0px ; margin-left: 8px&quot;&gt;Solution&lt;/p&gt;" style="verticalAlign=middle;align=center;overflow=fill;fontSize=12;fontFamily=Helvetica;html=1;rounded=1;fontStyle=1;strokeWidth=3;fillColor=#dae8fc;strokeColor=#6c8ebf;" vertex="1" parent="1">
          <mxGeometry x="670" y="785" width="111.5" height="115" as="geometry" />
        </mxCell>
        <mxCell id="Wp3fWdjh60ijozdMkYZD-115" value="&lt;b&gt;&lt;i&gt;Component Set&lt;/i&gt;&lt;/b&gt;" style="text;html=1;strokeColor=none;fillColor=none;align=center;verticalAlign=middle;whiteSpace=wrap;rounded=0;dashed=1;dashPattern=1 4;" vertex="1" parent="1">
          <mxGeometry x="330" y="725" width="110" height="20" as="geometry" />
        </mxCell>
        <mxCell id="Wp3fWdjh60ijozdMkYZD-116" value="&lt;p style=&quot;margin: 0px ; margin-top: 4px ; text-align: center ; text-decoration: underline&quot;&gt;Data Visualization&lt;/p&gt;&lt;p style=&quot;margin: 0px ; margin-top: 4px ; text-align: center ; text-decoration: underline&quot;&gt;Labeling&lt;/p&gt;&lt;p style=&quot;margin: 0px ; margin-top: 4px ; text-align: center ; text-decoration: underline&quot;&gt;Segmentation&lt;/p&gt;" style="verticalAlign=middle;align=center;overflow=fill;fontSize=12;fontFamily=Helvetica;html=1;rounded=1;fontStyle=1;strokeWidth=3;fillColor=#dae8fc;strokeColor=#6c8ebf;" vertex="1" parent="1">
          <mxGeometry x="900" y="700" width="111.5" height="115" as="geometry" />
        </mxCell>
        <mxCell id="Wp3fWdjh60ijozdMkYZD-117" value="" style="endArrow=classic;startArrow=classic;html=1;strokeWidth=2;strokeColor=none;" edge="1" parent="1" target="Wp3fWdjh60ijozdMkYZD-107">
          <mxGeometry width="50" height="50" relative="1" as="geometry">
            <mxPoint x="140" y="952.0537428023033" as="sourcePoint" />
            <mxPoint x="500" y="875" as="targetPoint" />
          </mxGeometry>
        </mxCell>
        <mxCell id="Wp3fWdjh60ijozdMkYZD-119" style="edgeStyle=orthogonalEdgeStyle;rounded=1;sketch=0;jumpStyle=arc;orthogonalLoop=1;jettySize=auto;html=1;endArrow=async;endFill=1;strokeWidth=2;dashed=1;" edge="1" parent="1">
          <mxGeometry relative="1" as="geometry">
            <mxPoint x="750" y="950" as="sourcePoint" />
            <mxPoint x="750" y="920" as="targetPoint" />
            <Array as="points">
              <mxPoint x="750" y="980" />
              <mxPoint x="820" y="980" />
              <mxPoint x="820" y="890" />
              <mxPoint x="750" y="890" />
            </Array>
          </mxGeometry>
        </mxCell>
        <mxCell id="Wp3fWdjh60ijozdMkYZD-120" value="Streaming Process" style="edgeLabel;html=1;align=center;verticalAlign=middle;resizable=0;points=[];" vertex="1" connectable="0" parent="Wp3fWdjh60ijozdMkYZD-119">
          <mxGeometry x="0.0394" y="-2" relative="1" as="geometry">
            <mxPoint x="-132" y="31" as="offset" />
          </mxGeometry>
        </mxCell>
        <mxCell id="Wp3fWdjh60ijozdMkYZD-121" value="" style="group" vertex="1" connectable="0" parent="1">
          <mxGeometry x="30" y="900" width="130" height="50" as="geometry" />
        </mxCell>
        <mxCell id="Wp3fWdjh60ijozdMkYZD-122" value="" style="endArrow=classic;html=1;" edge="1" parent="Wp3fWdjh60ijozdMkYZD-121">
          <mxGeometry width="50" height="50" relative="1" as="geometry">
            <mxPoint y="40" as="sourcePoint" />
            <mxPoint x="80" y="40" as="targetPoint" />
          </mxGeometry>
        </mxCell>
        <mxCell id="Wp3fWdjh60ijozdMkYZD-123" value="" style="endArrow=classic;html=1;dashed=1;" edge="1" parent="Wp3fWdjh60ijozdMkYZD-121">
          <mxGeometry width="50" height="50" relative="1" as="geometry">
            <mxPoint y="10" as="sourcePoint" />
            <mxPoint x="80" y="10" as="targetPoint" />
          </mxGeometry>
        </mxCell>
        <mxCell id="Wp3fWdjh60ijozdMkYZD-124" value="Future" style="text;html=1;strokeColor=none;fillColor=none;align=center;verticalAlign=middle;whiteSpace=wrap;rounded=0;strokeWidth=2;" vertex="1" parent="Wp3fWdjh60ijozdMkYZD-121">
          <mxGeometry x="90" y="145" width="40" height="20" as="geometry" />
        </mxCell>
        <mxCell id="Wp3fWdjh60ijozdMkYZD-125" value="Included" style="text;html=1;strokeColor=none;fillColor=none;align=center;verticalAlign=middle;whiteSpace=wrap;rounded=0;" vertex="1" parent="Wp3fWdjh60ijozdMkYZD-121">
          <mxGeometry x="90" y="175" width="40" height="20" as="geometry" />
        </mxCell>
        <mxCell id="Wp3fWdjh60ijozdMkYZD-127" value="Applications" style="swimlane;startSize=20;horizontal=0;rounded=1;strokeWidth=3;" vertex="1" parent="1">
          <mxGeometry x="13" y="50" width="800" height="120" as="geometry" />
        </mxCell>
        <mxCell id="Wp3fWdjh60ijozdMkYZD-128" value="Data System" style="swimlane;startSize=20;horizontal=0;rounded=1;strokeWidth=3;" vertex="1" parent="1">
          <mxGeometry x="10" y="190" width="800" height="260" as="geometry" />
        </mxCell>
        <mxCell id="Wp3fWdjh60ijozdMkYZD-110" value="" style="group;" vertex="1" connectable="0" parent="Wp3fWdjh60ijozdMkYZD-128">
          <mxGeometry x="28.5" y="10" width="273.5" height="130" as="geometry" />
        </mxCell>
        <mxCell id="Wp3fWdjh60ijozdMkYZD-111" value="&lt;div style=&quot;text-align: justify&quot;&gt;&lt;br&gt;&lt;/div&gt;" style="rounded=0;whiteSpace=wrap;html=1;strokeWidth=2;" vertex="1" parent="Wp3fWdjh60ijozdMkYZD-110">
          <mxGeometry width="273.5" height="130" as="geometry" />
        </mxCell>
        <mxCell id="Wp3fWdjh60ijozdMkYZD-131" value="" style="group" vertex="1" connectable="0" parent="Wp3fWdjh60ijozdMkYZD-110">
          <mxGeometry x="8.500000000000002" y="7.670000000000002" width="256.5" height="86.67" as="geometry" />
        </mxCell>
        <mxCell id="Wp3fWdjh60ijozdMkYZD-112" value="&lt;b&gt;RDBMS&lt;/b&gt;" style="shape=cylinder3;whiteSpace=wrap;html=1;boundedLbl=1;backgroundOutline=1;size=15;strokeWidth=3;fillColor=#FFFFCC;" vertex="1" parent="Wp3fWdjh60ijozdMkYZD-131">
          <mxGeometry width="77.33" height="86.67" as="geometry" />
        </mxCell>
        <mxCell id="Wp3fWdjh60ijozdMkYZD-113" value="&lt;b&gt;NoSQL&lt;/b&gt;" style="shape=cylinder3;whiteSpace=wrap;html=1;boundedLbl=1;backgroundOutline=1;size=15;strokeWidth=3;fillColor=#FFFFCC;" vertex="1" parent="Wp3fWdjh60ijozdMkYZD-131">
          <mxGeometry x="90.4" width="76.1" height="86.67" as="geometry" />
        </mxCell>
        <mxCell id="Wp3fWdjh60ijozdMkYZD-114" value="&lt;b&gt;Time-series&lt;/b&gt;" style="shape=cylinder3;whiteSpace=wrap;html=1;boundedLbl=1;backgroundOutline=1;size=15;strokeWidth=3;fillColor=#FFFFCC;" vertex="1" parent="Wp3fWdjh60ijozdMkYZD-131">
          <mxGeometry x="180" width="76.5" height="86.67" as="geometry" />
        </mxCell>
        <mxCell id="Wp3fWdjh60ijozdMkYZD-132" value="&lt;b&gt;&lt;font style=&quot;font-size: 14px&quot;&gt;Data Persistence&lt;/font&gt;&lt;/b&gt;" style="text;html=1;fillColor=none;align=center;verticalAlign=middle;whiteSpace=wrap;rounded=0;" vertex="1" parent="Wp3fWdjh60ijozdMkYZD-110">
          <mxGeometry x="61.5" y="110" width="148.5" height="20" as="geometry" />
        </mxCell>
        <mxCell id="Wp3fWdjh60ijozdMkYZD-129" value="Sources" style="swimlane;startSize=20;horizontal=0;rounded=1;strokeWidth=3;" vertex="1" parent="1">
          <mxGeometry x="10" y="490" width="800" height="120" as="geometry" />
        </mxCell>
        <mxCell id="Wp3fWdjh60ijozdMkYZD-133" value="&lt;font style=&quot;font-size: 12px&quot;&gt;&lt;font style=&quot;font-size: 12px&quot;&gt;&lt;b&gt;Historical &lt;/b&gt;&lt;/font&gt;&lt;b&gt;Data&lt;/b&gt;&lt;/font&gt;" style="strokeWidth=2;html=1;shape=mxgraph.flowchart.multi-document;whiteSpace=wrap;rounded=1;align=left;fillColor=#FFFFCC;" vertex="1" parent="Wp3fWdjh60ijozdMkYZD-129">
          <mxGeometry x="44" y="30" width="106" height="70" as="geometry" />
        </mxCell>
        <mxCell id="Wp3fWdjh60ijozdMkYZD-99" value="Real-time Data" style="whiteSpace=wrap;align=center;verticalAlign=middle;fontStyle=1;strokeWidth=2;fillColor=#FFFFCC;rounded=1;glass=0;sketch=0;shadow=0;" vertex="1" parent="Wp3fWdjh60ijozdMkYZD-129">
          <mxGeometry x="173" y="35" width="110" height="60" as="geometry" />
        </mxCell>
        <mxCell id="Wp3fWdjh60ijozdMkYZD-134" value="&lt;b&gt;Data Layer&lt;/b&gt;" style="strokeWidth=2;html=1;shape=mxgraph.flowchart.direct_data;whiteSpace=wrap;rounded=1;shadow=0;glass=0;sketch=0;fillColor=#FFFFCC;align=center;" vertex="1" parent="Wp3fWdjh60ijozdMkYZD-129">
          <mxGeometry x="310" y="35" width="110" height="60" as="geometry" />
        </mxCell>
      </root>
    </mxGraphModel>
  </diagram>
</mxfile>
